<svg fill="none" height="15" viewBox="0 0 15 15" width="15" xmlns="http://www.w3.org/2000/svg"><path d="m2.44898 14.398.44721-.2237zm10.10202 0 .4472.2236zm-11.847804-8.398h13.593604v-1h-13.593604zm13.296804-.2968v.43876h1v-.43876zm-1.6141 8.2968h-9.77181v1h9.77181zm-11.3859-7.85804v-.43876h-1v.43876zm1.89619 8.03234c-1.24699-2.4939-1.89619-5.24399-1.89619-8.03234h-1c0 2.94359.685346 5.84674 2.00176 8.47964zm-.2821-.1743c.11947 0 .22868.0675.2821.1743l-.89443.4473c.11597.2319.35302.3784.61233.3784zm9.48971.1743c.0534-.1068.1626-.1743.2821-.1743v1c.2593 0 .4964-.1465.6123-.3784zm1.8962-8.03234c0 2.78835-.6492 5.53844-1.8962 8.03234l.8944.4473c1.3165-2.6329 2.0018-5.53605 2.0018-8.47964zm.2968-.14196c-.1639 0-.2968-.13288-.2968-.2968h1c0-.38837-.3148-.7032-.7032-.7032zm-13.593604-1c-.388365 0-.703196.31483-.703196.7032h1c0 .16392-.132883.2968-.296804.2968zm3.225554.75725 3-5.000002-.8575-.514496-3 4.999998zm4.1425-5.000002 3.00005 5.000002.8574-.5145-2.99995-4.999998z" fill="white"/></svg>